<?xml version="1.0" encoding="UTF-8"?>
<svg id="Calque_1" data-name="Calque 1" xmlns="http://www.w3.org/2000/svg" viewBox="0 0 841.89 595.28">
  <defs>
    <style>
      .cls-1 {
        fill: #2e52a0;
      }

      .cls-2 {
        fill: #fff;
      }
    </style>
  </defs>
  <path class="cls-2" d="M753.57,351.12c4.1,11.72,6.29,25.21,6.53,40.33.49,31.34-7.5,56.55-23.78,74.89-11.57,13.09-33.22,28.82-70.58,29.4h-2.55c-20.29,0-43.37-3.89-59.19-9.84-11.66,5.34-29.37,11.3-51.29,11.63h-2.25c-28.36,0-53.15-5.92-72.28-16.88-14.15,11.51-32.28,17.89-52.99,18.19l-1.58.03c-13.7,0-24.39-2.76-32.86-6.65-10.6,4.95-22.38,7.53-35.32,7.74h-1.88c-46.59,0-75.98-28.79-76.74-75.16l-.3-18.37h-69.06v-65.29c-15.58,8.47-34.77,13.15-56.52,13.15-32.37,0-67.45-12.12-85.37-24.08l-20.47-13.7,28.12-70.33c-8.99-12.82-13.54-28.21-13.54-46.07,0-51.84,39.9-88.07,97.06-88.07,7.29,0,14.61.64,21.8,1.88,1.06-1.43,2.22-2.76,3.46-4.07,6.07-6.32,17.01-9.11,34.62-9.44h1.21c1.49,0,2.98.06,4.46.15l.88-.97.73,1.09c7.02.58,14.12,2.03,21.02,3.43,3.86.79,7.8,1.61,11.05,2.1l4.79,2.13c11.43,5.09,23.48,8.63,35.85,10.55l12.39,2.88h0c1.79-.24,4.08.62,5.1.78h.94c14.43,0,27.54,1.94,35.02,13.3,2.55,3.86,4.34,8.08,5.41,12.48,3.25,3.37,5.86,7.35,7.47,11.75l4.77,12.85-.21.39c1.21,1.12,2.4,2.28,3.58,3.52,21.38-16.79,48.56-26.88,76.16-26.88,22.62,0,41.79,6.62,55.64,18.59,23.38-11.75,49.14-18.59,71.88-18.59,21.08,0,39.18,5.74,52.75,16.25,16-6.83,32.98-11.78,49.11-14.3v-44.61h113.15v181.18l7.02,62.65h-43.21Z"/>
  <g>
    <path class="cls-1" d="M164.55,213.1c-14.2-4.54-24.1-8.02-24.1-15.52,0-5.09,3.77-7.78,10.18-7.78,10.43,0,25.18,7.5,39.35,17.41l6.02-7.65c-7.38-4.17-11.3-11.94-11.45-19.78-.12-6.57,2.41-12.87,6.97-17.28,1.57-1.51,3.33-2.75,5.22-3.73-.83-.52-1.64-1.14-2.38-1.79-1.7-1.51-3.09-3.33-4.14-5.34-12.41-5.46-26.2-8.39-40.12-8.39-38.3,0-67.74,20.34-67.74,58.64s29.2,48.73,51.42,55.15c13.36,4.01,21.67,6.7,21.67,13.92,0,6.14-4.01,8.83-11.23,8.83-12.59,0-37.74-8.58-51.42-16.85l-18.18,45.49c12.84,8.58,42.56,19.29,69.59,19.29,40.68,0,71.2-20.34,71.2-59.16,0-36.42-26.76-47.4-50.86-55.43Z"/>
    <path class="cls-1" d="M326.73,169.06c-3.55,6.67-8.33,11.54-13.39,14.13-2.62,1.36-5.31,2.1-7.96,2.13-4.17.09-6.08-1.57-6.88-3.52-.86-2.01-.52-4.32-.31-5.31v-.03c.09-.15.19-.31.25-.43,12.81,1.3,19.1-2.53,22.34-10.28,4.66-10.86-1.73-16.91-10.09-16.76-9.17.19-15.68,7.07-19.35,14.91-1.02,2.1-1.82,4.32-2.41,6.45,0,.03-.03.03-.03.03-2.47,4.47-4.94,8.21-7.31,10.89v.03c-.4.46-.8.89-1.17,1.3-2.04,2.1-3.89,3.27-5.34,3.3-.74.03-1.7-.31-1.57-2.53.06-1.51.62-3.83,2.01-7.53l3.89-10.37c1.54-4.17,2.25-7.1,2.22-9.23-.09-4.2-2.78-6.6-7.25-6.51-6.42.12-11.82,5.46-11.82,5.46l2.96-7.99,3.24-8.7c2.56-2.38,2.87-4.97,2.87-4.97l-5.77-3.12s-2.28,2.31-9.26,2.47c-1.02.03-2.1,0-3.18-.06-12.84-.74-30.49-6.54-41.82-6.33-12.78.25-17.65,8.09-17.5,15.71.19,8.8,6.85,13.73,14.04,13.58,6.67-.12,10.4-4.41,10.4-4.41l-4.57-6.79s-2.28,2.5-5.43,2.56c-2.81.06-5.46-1.64-5.52-5.03-.09-3.18,2.1-6.14,8.24-6.26,5.56-.12,14.84,2.07,24.17,3.86l-11.05,29.69c-4.04,10.96-8.49,17.78-15.92,17.9-.89.03-1.76-.06-2.56-.28-3.52-.89-5.89-3.86-5.96-7.47-.06-3.33,1.85-8.27,9.07-7.87l-.19-9.26c-11.23-.65-18.27,7.81-18.09,17.25.12,6.08,3.21,12.01,9.17,14.94,2.56,1.3,5.68,2.01,9.29,1.94,6.88-.12,17.28-3.33,23.76-21.14l12.65-33.92c1.33.19,2.87.34,4.41.43,2.35.19,4.72.31,6.48.31l-2.28,6.11-15.83,42.47-.68,1.79,10.93-.22,1.82-4.88,8.39-22.65c3.33-4.04,6.94-5.86,8.89-5.89,1.23-.03,2.1.59,2.13,1.64,0,1.17-1.08,4.23-2.56,8.06l-1.7,4.63c-1.79,4.85-2.56,8.7-2.5,11.67.15,5.68,3.33,8.12,8.24,8.02,4.29-.09,8.12-2.25,11.67-5.71,1.54-1.48,2.99-3.24,4.41-5.18.15-.19.28-.4.43-.59,0,.19.03.37.06.56.4,2.41,1.3,4.41,2.68,6.02,2.44,2.87,6.42,4.38,11.97,4.29,7.41-.15,13.43-3.18,18.21-7.44,4.26-3.77,7.53-8.49,9.97-13.02-.49-1.33-2.53-2.78-4.01-2.84ZM310.25,157.98c2.72-.06,2.53,2.16,1.11,5.43-1.54,4.07-4.1,7.62-11.36,6.57,0,0,4.2-11.88,10.25-12.01Z"/>
    <path class="cls-1" d="M327.32,187.18h-.03c-6.97,7.22-15.4,11.17-24.6,11.36h-.68c-6.11,0-11.02-1.67-14.63-4.91-.34-.31-.71-.65-1.05-1.05-4.14,3.83-9.07,6.45-14.88,6.57h-.4c-4.97,0-9.04-1.91-11.51-5.4-1.3-1.82-2.13-3.98-2.47-6.45l-4.14,11.17-20.4.4v181.81h54.07v-53.51c3.77.8,9.91,1.6,14.47,1.6,38.27,0,62.09-25.99,62.09-74.16,0-35.12-12.38-57.74-35.86-67.43ZM294.11,291.8c-2.65,0-5.34-.8-7.5-1.6v-67.99c1.36-.52,4.57-1.33,8.58-1.33,12.31,0,13.39,13.36,13.39,35.58,0,18.49-.28,35.34-14.47,35.34Z"/>
    <path class="cls-1" d="M373.88,259.69c0-38.82,23.56-77.91,71.48-77.91,29.18,0,49.8,13.92,49.8,45.24,0,36.68-38.55,46.32-66.13,48.99,2.14,8.03,9.64,13.12,21.15,13.12s22.76-4.55,32.66-10.98l13.65,35.34c.53-.27-21.42,15.26-54.61,15.26-48.99,0-68-28.38-68-69.07ZM449.11,226.49c0-4.28-2.68-7.23-6.96-7.23-7.5,0-14.99,7.23-15.79,24.9,14.46-1.34,22.76-9.91,22.76-17.67Z"/>
    <path class="cls-1" d="M612.4,278.17c-9.91,6.42-21.67,10.96-32.65,10.96s-19.01-5.06-21.14-13.12c27.56-2.65,66.11-12.31,66.11-48.98,0-31.32-20.62-45.24-49.78-45.24-47.93,0-71.48,39.07-71.48,77.9s19.01,69.07,67.99,69.07c13.42,0,25.03-2.53,34.04-5.52l-.52-32.28,12.31-.19-4.88-12.59ZM571.72,219.25c4.26,0,6.94,2.96,6.94,7.25,0,7.75-8.3,16.33-22.75,17.65.8-17.65,8.3-24.91,15.8-24.91Z"/>
    <path class="cls-1" d="M762.57,293.41v-154.99h-53.27v43.64c-1.08,0-3.49-.28-7.22-.28-45.24,0-69.07,34.53-69.07,81.38,0,8.8.62,18.3,2.81,27.28l30.28-.46.59,36.23c5.71,1.82,12.38,2.81,20.12,2.81,15.8,0,26.79-8.83,30-16.05h1.6l2.93,11.51h44.72l-3.49-31.08ZM709.31,281.1c0,4.57-4.29,9.38-9.91,9.38-10.18,0-12.84-13.39-12.84-31.32s2.13-39.63,19.26-39.63c1.08,0,2.16,0,3.49.28v61.29Z"/>
  </g>
  <path class="cls-1" d="M479.41,400.63c.74,47.1-19.47,73.39-56.94,73.98-18.18.28-27.25-6.05-34.13-13.21-9.88,9.54-21.57,14.1-36.79,14.35h-1.42c-30.34,0-46.63-15.89-47.13-46.05l-1.36-85.58,51.91-.83,1.36,85.33c.03,2.87.37,4.69,1.05,5.77.43.68,1.17,1.36,3.3,1.36,2.41-.06,5.18-1.11,5.06-9.01l-1.33-83.61,51.42-.8,1.33,84.59c.09,6.02.43,7.93,3.89,7.84,3.52-.03,5.49-4.85,6.57-8.89,1.51-5.71,2.22-13.92,2.07-23.7-.31-17.93-4.6-42.31-8.76-58.51l-.37-1.42,51.2-.8.25.83c4.91,16.54,8.52,40.55,8.83,58.36Z"/>
  <path class="cls-1" d="M602.83,456.64l-13.46-33.27-1.17.8c-9.72,6.51-20.09,10.18-29.16,10.34-9.2.15-15.59-3.33-18.02-9.57,39.38-4.78,59.93-20.99,59.53-46.88-.22-14.13-4.85-24.97-13.73-32.19-8.09-6.57-19.81-9.91-33.76-9.69-20.68.31-37.9,8.49-49.78,23.58-10.18,12.96-15.74,30.15-15.74,48.58v1.48c.65,41.54,22.31,63.45,62.71,63.45h1.79c26.57-.43,45.46-11.45,49.93-14.69l.43-.22-.03-.09c.37-.28.59-.46.59-.56l.28-.74-.4-.34ZM557.16,378.25c.12,7.13-7.35,15.09-20.58,16.54.46-16.2,7.22-22.96,14.1-23.05,3.92-.06,6.42,2.59,6.48,6.51Z"/>
  <path class="cls-1" d="M718.32,350.61c-8.55-10.06-20.65-15.09-35.92-14.81-8.76.12-17.2,2.07-21.83,3.77l-.22-13.43-.46-29.78-22.8.4-18.02.28-9.41.15.4,26.02v.03l2.25,140.52.68.31c10.28,4.48,31.63,9.07,51.82,9.07h2.1c21.45-.34,37.99-6.91,49.13-19.5,11.26-12.72,16.76-31.26,16.39-55.12-.34-21.11-5.09-37.25-14.1-47.9ZM679.71,427.71c-1.7,6.17-5.09,9.1-10.68,9.2-1.02,0-2.84.06-5.25-.43l-.93-57.71c-.03-1.91.49-3.36,1.51-4.38.93-.89,2.28-1.42,3.89-1.42,4.81-.06,7.99,2.56,10,8.33.9,2.53,1.54,5.68,2.04,9.63.43,3.95.71,8.73.8,14.54.12,7.59.28,16.2-1.39,22.25Z"/>
</svg>